<?xml version="1.0" standalone="no"?>
<!DOCTYPE svg PUBLIC "-//W3C//DTD SVG 20010904//EN"
 "http://www.w3.org/TR/2001/REC-SVG-20010904/DTD/svg10.dtd">
<svg version="1.0" xmlns="http://www.w3.org/2000/svg"
 width="270.000000pt" height="270.000000pt" viewBox="0 0 270.000000 270.000000"
 preserveAspectRatio="xMidYMid meet">
<metadata>
Created by potrace 1.14, written by Peter Selinger 2001-2017
</metadata>
<g transform="translate(0.000000,270.000000) scale(0.100000,-0.100000)"
fill="#000000" stroke="none">
<path d="M631 2048 c-67 -10 -223 -62 -278 -93 l-42 -23 -3 46 -3 47 -105 0
-105 0 0 -690 0 -690 105 0 105 0 0 555 0 555 29 18 c16 10 70 32 120 49 80
28 104 32 206 32 102 1 121 -2 163 -23 91 -44 125 -134 133 -351 4 -110 6
-633 3 -658 -1 -4 -1 -46 0 -94 l1 -86 107 1 108 2 -1 400 c-1 482 -3 553 -19
645 l-12 71 30 16 c192 99 472 108 553 17 46 -52 61 -98 79 -249 1 -11 3 -219
4 -462 l1 -443 108 0 107 0 -1 443 c-1 472 -5 548 -34 669 -42 171 -120 253
-275 288 -50 12 -224 15 -280 6 -67 -11 -205 -55 -283 -91 l-83 -38 -37 36
c-82 80 -242 118 -401 95z"/>
<path d="M2394 803 l-1 -163 119 0 118 0 -2 163 -3 162 -116 0 -115 1 0 -163z"/>
</g>
</svg>
